<svg xmlns="http://www.w3.org/2000/svg" viewBox="0 0 16 16" width="32" height="32">
  <rect x="7.35" y="0" width="1.3" height="4" fill="#333" transform="rotate(0 8 8)" />
  <rect x="7.35" y="0" width="1.3" height="4" fill="#333" transform="rotate(30 8 8)" />
  <rect x="7.35" y="0" width="1.3" height="4" fill="#333" transform="rotate(60 8 8)" />
  <rect x="7.35" y="0" width="1.3" height="4" fill="#333" transform="rotate(90 8 8)" />
  <rect x="7.35" y="0" width="1.3" height="4" fill="#333" transform="rotate(120 8 8)" />
  <rect x="7.35" y="0" width="1.3" height="4" fill="#333" transform="rotate(150 8 8)" />
  <rect x="7.35" y="0" width="1.3" height="4" fill="#333" transform="rotate(180 8 8)" />
  <rect x="7.35" y="0" width="1.3" height="4" fill="#333" transform="rotate(210 8 8)" />
  <rect x="7.35" y="0" width="1.3" height="4" fill="#333" transform="rotate(240 8 8)" />
  <rect x="7.35" y="0" width="1.3" height="4" fill="#333" transform="rotate(270 8 8)" />
  <rect x="7.35" y="0" width="1.3" height="4" fill="#333" transform="rotate(300 8 8)" />
  <rect x="7.35" y="0" width="1.3" height="4" fill="#333" transform="rotate(330 8 8)" />
</svg>
